<svg xmlns="http://www.w3.org/2000/svg" viewBox="0 0 64 64" width="64" height="64" aria-hidden="true">
  <!-- Konsepsiya 1: tomchi + yurak (negative space) -->
  <path fill="#0E86C9" fill-rule="evenodd" d="
    M32 5.5
    C32 5.5 8 27.5 8 41.5
    C8 53.15 18.85 62 32 62
    C45.15 62 56 53.15 56 41.5
    C56 27.5 32 5.5 32 5.5
    Z
    M32 44.5
    C30.4 41.8 24 38.6 24 34.2
    C24 31.4 26.2 29.2 28.8 29.2
    C30.1 29.2 31.2 29.9 32 31
    C32.8 29.9 33.9 29.2 35.2 29.2
    C37.8 29.2 40 31.4 40 34.2
    C40 38.6 33.6 41.8 32 44.5
    Z
  "/>
</svg>
