<svg xmlns="http://www.w3.org/2000/svg" viewBox="0 0 64 64" width="64" height="64" aria-hidden="true">
  <rect width="64" height="64" rx="16" fill="#0E86C9"/>
  <path fill="#fff" fill-rule="evenodd" d="
    M32 14
    C32 14 14 30.5 14 41.5
    C14 50.4 21.6 57 32 57
    C42.4 57 50 50.4 50 41.5
    C50 30.5 32 14 32 14
    Z
    M32 43
    C30.6 40.6 26 38 26 34.6
    C26 32.4 27.8 30.8 29.6 30.8
    C30.7 30.8 31.6 31.3 32 32.1
    C32.4 31.3 33.3 30.8 34.4 30.8
    C36.2 30.8 38 32.4 38 34.6
    C38 38 33.4 40.6 32 43
    Z
  "/>
</svg>
