<svg xmlns="http://www.w3.org/2000/svg" viewBox="0 0 220 48" width="220" height="48" role="img" aria-label="Aquarich">
  <path fill="#0E86C9" fill-rule="evenodd" d="
    M24 4.5
    C24 4.5 4 22.5 4 34.5
    C4 44.15 12.85 52 24 52
    C35.15 52 44 44.15 44 34.5
    C44 22.5 24 4.5 24 4.5
    Z
    M24 37.5
    C22.4 34.8 17 31.6 17 27.2
    C17 24.4 19.2 22.2 21.8 22.2
    C23.1 22.2 24.2 22.9 25 24
    C25.8 22.9 26.9 22.2 28.2 22.2
    C30.8 22.2 33 24.4 33 27.2
    C33 31.6 27.6 34.8 26 37.5
    Z
  "/>
  <text x="56" y="34" font-family="'Plus Jakarta Sans', system-ui, sans-serif" font-size="26" font-weight="800" fill="#0E2F45" letter-spacing="-0.03em">Aquarich</text>
</svg>
